<svg xmlns="http://www.w3.org/2000/svg" width="32" height="32" viewBox="0 0 32 32">
  <g id="ic_polygon32" transform="translate(643 -3893.75)">
    <rect id="Rectangle_35" data-name="Rectangle 35" width="32" height="31.709" transform="translate(-643 3893.75)" fill="none"/>
    <g id="Ellipse_5" data-name="Ellipse 5" transform="translate(-1828.847 3191.751)" fill="rgba(130,71,229,0.23)" stroke-linejoin="round">
      <path d="M 1201.83349609375 733.4986572265625 L 1201.826049804688 733.4983520507812 L 1201.803466796875 733.4974975585938 C 1201.342163085938 733.4879150390625 1200.890380859375 733.3560791015625 1200.41796875 733.0942993164062 C 1199.359008789062 732.5072021484375 1198.279907226562 731.9148559570312 1197.236328125 731.3419799804688 C 1195.790161132812 730.5480346679688 1194.294677734375 729.7271118164062 1192.831665039062 728.9087524414062 C 1192.701049804688 728.8357543945312 1192.5732421875 728.7512817382812 1192.451538085938 728.6576538085938 L 1192.421875 728.6348876953125 L 1192.38916015625 728.6167602539062 L 1191.516845703125 728.1333618164062 C 1190.559326171875 727.6028442382812 1189.601806640625 727.0722045898438 1188.6455078125 726.5406494140625 C 1187.874755859375 726.1116333007812 1187.5 725.4470825195312 1187.500244140625 724.5091552734375 C 1187.500244140625 723.1492919921875 1187.500244140625 721.7893676757812 1187.5 720.4297485351562 C 1187.499633789062 720.3819580078125 1187.499633789062 720.3372802734375 1187.499633789062 720.293212890625 C 1187.5 719.5287475585938 1187.5 718.7636108398438 1187.5 717.9984130859375 C 1187.5 717.2330932617188 1187.5 716.4683227539062 1187.499633789062 715.70361328125 C 1187.499633789062 715.6594848632812 1187.499633789062 715.6151733398438 1187.5 715.5706787109375 C 1187.500244140625 714.2074584960938 1187.500244140625 712.8477783203125 1187.500244140625 711.4881591796875 C 1187.5 710.5496215820312 1187.874633789062 709.8851318359375 1188.6455078125 709.4566650390625 C 1189.515747070312 708.9721069335938 1190.386840820312 708.4895629882812 1191.257934570312 708.0068969726562 C 1191.635009765625 707.7979736328125 1192.01220703125 707.5889892578125 1192.38916015625 707.3798828125 L 1192.421875 707.3617553710938 L 1192.451416015625 707.3390502929688 C 1192.571655273438 707.2466430664062 1192.699584960938 707.162353515625 1192.83154296875 707.0885009765625 C 1194.295532226562 706.26953125 1195.791870117188 705.4481201171875 1197.239013671875 704.6536865234375 C 1198.28173828125 704.0813598632812 1199.35986328125 703.489501953125 1200.418090820312 702.9028930664062 C 1200.891723632812 702.6407470703125 1201.343505859375 702.5087890625 1201.798950195312 702.4996337890625 L 1201.817260742188 702.4990844726562 L 1201.82763671875 702.498779296875 L 1201.84716796875 702.4987182617188 C 1201.883056640625 702.4987182617188 1201.92138671875 702.499755859375 1201.961059570312 702.501953125 C 1201.970947265625 702.50244140625 1201.980224609375 702.5027465820312 1201.989135742188 702.5029296875 C 1202.424438476562 702.5281982421875 1202.856323242188 702.6633911132812 1203.308959960938 702.9161376953125 C 1204.6044921875 703.6390380859375 1205.961669921875 704.3934936523438 1207.458374023438 705.2227783203125 C 1208.246704101562 705.65576171875 1208.960083007812 706.0506591796875 1209.640869140625 706.430908203125 C 1211.218994140625 707.302978515625 1212.79541015625 708.1729125976562 1214.3720703125 709.0428466796875 L 1214.89599609375 709.3319702148438 C 1215.791015625 709.8258056640625 1216.203979492188 710.507568359375 1216.195556640625 711.4775390625 C 1216.186767578125 712.4796142578125 1216.188598632812 713.4971313476562 1216.1904296875 714.481201171875 C 1216.191040039062 714.81591796875 1216.191650390625 715.1506958007812 1216.19189453125 715.4854125976562 L 1216.19189453125 715.4935302734375 L 1216.192138671875 715.5015869140625 C 1216.192993164062 715.525634765625 1216.19384765625 715.550537109375 1216.19384765625 715.5750732421875 C 1216.19189453125 716.31201171875 1216.191650390625 717.0502319335938 1216.191650390625 717.7882080078125 L 1216.191650390625 717.9984130859375 L 1216.191650390625 718.2088623046875 C 1216.191650390625 718.9468383789062 1216.19189453125 719.6846923828125 1216.19384765625 720.4229736328125 C 1216.19384765625 720.4464721679688 1216.192993164062 720.4713134765625 1216.192138671875 720.495849609375 L 1216.19189453125 720.5037841796875 L 1216.19189453125 720.5117797851562 C 1216.191650390625 720.846435546875 1216.191040039062 721.18115234375 1216.1904296875 721.515869140625 C 1216.188598632812 722.5001220703125 1216.186767578125 723.5178833007812 1216.195556640625 724.52001953125 C 1216.203979492188 725.4891967773438 1215.790893554688 726.1708984375 1214.895874023438 726.6652221679688 L 1213.433959960938 727.4719848632812 C 1212.170043945312 728.1693725585938 1210.90625 728.86669921875 1209.642700195312 729.5650634765625 C 1208.85791015625 730.0034790039062 1208.144653320312 730.3982543945312 1207.46044921875 730.7730102539062 C 1205.861694335938 731.6593017578125 1204.543212890625 732.3922119140625 1203.30908203125 733.0806884765625 C 1202.853881835938 733.3348999023438 1202.421142578125 733.4701538085938 1201.985961914062 733.4942016601562 C 1201.977783203125 733.4944458007812 1201.970336914062 733.4947509765625 1201.963134765625 733.4951171875 C 1201.91259765625 733.4973754882812 1201.871215820312 733.49853515625 1201.83349609375 733.4986572265625 Z" stroke="none"/>
      <path d="M 1201.846801757812 702.9986572265625 L 1201.818115234375 702.9993286132812 C 1201.815063476562 702.9993896484375 1201.81201171875 702.99951171875 1201.808959960938 702.9995727539062 C 1201.436767578125 703.0070190429688 1201.060913085938 703.1185302734375 1200.660522460938 703.3401489257812 C 1199.601440429688 703.92724609375 1198.52294921875 704.519287109375 1197.47998046875 705.091796875 C 1196.033569335938 705.8858032226562 1194.537963867188 706.706787109375 1193.07568359375 707.5248413085938 C 1192.963134765625 707.5877685546875 1192.858642578125 707.6566772460938 1192.756225585938 707.7354125976562 C 1192.716796875 707.7657470703125 1192.675170898438 707.7930297851562 1192.631713867188 707.817138671875 C 1192.254516601562 708.0263671875 1191.877197265625 708.2354125976562 1191.499877929688 708.4443969726562 C 1190.629272460938 708.9268188476562 1189.758544921875 709.4091796875 1188.888427734375 709.8937377929688 C 1188.274047851562 710.2352294921875 1188.000122070312 710.7269287109375 1188.000244140625 711.4881591796875 C 1188.000244140625 712.8478393554688 1188.000244140625 714.20751953125 1188 715.5669555664062 C 1188 715.569580078125 1188 715.5722045898438 1188 715.5748291015625 C 1187.999633789062 715.617919921875 1187.999633789062 715.660888671875 1187.999633789062 715.703369140625 C 1188 716.4682006835938 1188 717.2329711914062 1188 717.9984130859375 C 1188 718.7637329101562 1188 719.5288696289062 1187.999633789062 720.293212890625 C 1187.999633789062 720.3358764648438 1187.999633789062 720.379150390625 1188 720.421630859375 C 1188 720.42431640625 1188 720.4269409179688 1188 720.4296264648438 C 1188.000244140625 721.789306640625 1188.000244140625 723.1492309570312 1188.000244140625 724.50927734375 C 1188.000122070312 725.2698974609375 1188.274169921875 725.76171875 1188.888427734375 726.1036376953125 C 1189.843994140625 726.6348266601562 1190.80078125 727.1649780273438 1191.757568359375 727.6951293945312 L 1192.631469726562 728.179443359375 C 1192.675048828125 728.2035522460938 1192.716674804688 728.2308959960938 1192.756225585938 728.2612915039062 C 1192.860229492188 728.3412475585938 1192.964721679688 728.4102783203125 1193.07568359375 728.4723510742188 C 1194.536987304688 729.2897338867188 1196.031616210938 730.1102294921875 1197.47705078125 730.9036865234375 C 1198.52099609375 731.4767456054688 1199.600463867188 732.0693969726562 1200.660400390625 732.6569213867188 C 1201.059936523438 732.8783569335938 1201.435913085938 732.98974609375 1201.809692382812 732.99755859375 C 1201.8125 732.99755859375 1201.815307617188 732.9976806640625 1201.818115234375 732.9977416992188 L 1201.84130859375 732.9985961914062 C 1201.868774414062 732.9983520507812 1201.900512695312 732.9974365234375 1201.937744140625 732.9957885742188 C 1201.946411132812 732.9953002929688 1201.955200195312 732.9949340820312 1201.964111328125 732.99462890625 C 1202.31982421875 732.9739379882812 1202.680053710938 732.8592529296875 1203.065551757812 732.64404296875 C 1204.300048828125 731.955322265625 1205.618774414062 731.2222290039062 1207.2158203125 730.3369140625 C 1207.21728515625 730.3361206054688 1207.21875 730.3353271484375 1207.220336914062 730.33447265625 C 1207.903198242188 729.9603881835938 1208.615234375 729.5662841796875 1209.40087890625 729.1275024414062 C 1210.663940429688 728.4293212890625 1211.927368164062 727.732177734375 1213.19091796875 727.0349731445312 L 1214.654052734375 726.2275390625 C 1215.390869140625 725.8206176757812 1215.702392578125 725.3112182617188 1215.695556640625 724.5244140625 C 1215.686767578125 723.52001953125 1215.688598632812 722.5013427734375 1215.6904296875 721.5161743164062 C 1215.691040039062 721.1812744140625 1215.691650390625 720.8463134765625 1215.69189453125 720.511474609375 C 1215.69189453125 720.500732421875 1215.692138671875 720.4900512695312 1215.6923828125 720.4793090820312 C 1215.692993164062 720.4602661132812 1215.69384765625 720.44091796875 1215.69384765625 720.42431640625 C 1215.69189453125 719.6856079101562 1215.691650390625 718.9473266601562 1215.691650390625 718.2088623046875 L 1215.691650390625 717.7882080078125 C 1215.691650390625 717.0497436523438 1215.69189453125 716.3110961914062 1215.69384765625 715.5750732421875 C 1215.69384765625 715.55615234375 1215.693115234375 715.5369262695312 1215.6923828125 715.5183715820312 C 1215.692138671875 715.5075073242188 1215.69189453125 715.4966430664062 1215.69189453125 715.4857177734375 C 1215.691650390625 715.1508178710938 1215.691040039062 714.8158569335938 1215.6904296875 714.48095703125 C 1215.688598632812 713.4959716796875 1215.686767578125 712.4774780273438 1215.695556640625 711.4732055664062 C 1215.702392578125 710.6856079101562 1215.390991210938 710.1761474609375 1214.654418945312 709.7697143554688 L 1214.119262695312 709.4744262695312 C 1212.546264648438 708.6064453125 1210.973388671875 707.7385864257812 1209.39697265625 706.867431640625 C 1208.716064453125 706.4871215820312 1208.003784179688 706.0927734375 1207.216064453125 705.6600952148438 C 1205.718872070312 704.83056640625 1204.361328125 704.0758666992188 1203.065185546875 703.3527221679688 C 1202.682739257812 703.13916015625 1202.32373046875 703.0245361328125 1201.968139648438 703.0025634765625 C 1201.957275390625 703.0022583007812 1201.946044921875 703.0018310546875 1201.933959960938 703.001220703125 C 1201.903198242188 702.99951171875 1201.873901367188 702.9986572265625 1201.846801757812 702.9986572265625 M 1201.846801757812 701.9986572265625 C 1201.893798828125 701.9986572265625 1201.941162109375 702.0001220703125 1201.98828125 702.002685546875 C 1201.995361328125 702.0030517578125 1202.002807617188 702.0030517578125 1202.009643554688 702.0032958984375 C 1202.520385742188 702.031494140625 1203.0322265625 702.18896484375 1203.552734375 702.4796142578125 C 1204.93408203125 703.2503662109375 1206.31689453125 704.0186767578125 1207.70068359375 704.785400390625 C 1208.430541992188 705.186279296875 1209.158203125 705.588623046875 1209.884643554688 705.994384765625 C 1211.63525390625 706.9617919921875 1213.386352539062 707.9278564453125 1215.137573242188 708.8941650390625 C 1216.1845703125 709.471923828125 1216.70556640625 710.3192138671875 1216.695556640625 711.4818115234375 C 1216.683837890625 712.8162841796875 1216.691040039062 714.150634765625 1216.69189453125 715.485107421875 C 1216.69287109375 715.5145263671875 1216.69384765625 715.5450439453125 1216.69384765625 715.5750732421875 C 1216.69189453125 716.3128662109375 1216.691650390625 717.0506591796875 1216.691650390625 717.7882080078125 C 1216.691650390625 717.858642578125 1216.691650390625 717.928466796875 1216.691650390625 717.9984130859375 C 1216.691650390625 718.068603515625 1216.691650390625 718.1385498046875 1216.691650390625 718.2088623046875 C 1216.691650390625 718.9464111328125 1216.69189453125 719.683837890625 1216.69384765625 720.421630859375 C 1216.69384765625 720.451904296875 1216.69287109375 720.482177734375 1216.69189453125 720.5120849609375 C 1216.691040039062 721.846435546875 1216.683837890625 723.1812744140625 1216.695556640625 724.515625 C 1216.70556640625 725.6785888671875 1216.1845703125 726.524658203125 1215.137573242188 727.1029052734375 C 1213.386352539062 728.0694580078125 1211.63525390625 729.0350341796875 1209.884643554688 730.002685546875 C 1209.158203125 730.408447265625 1208.430541992188 730.811767578125 1207.70068359375 731.2115478515625 C 1206.31689453125 731.9786376953125 1204.93408203125 732.7467041015625 1203.552734375 733.517333984375 C 1203.0322265625 733.8079833984375 1202.520385742188 733.966064453125 1202.009643554688 733.99365234375 C 1202.002807617188 733.9940185546875 1201.995361328125 733.9940185546875 1201.98828125 733.9945068359375 C 1201.922119140625 733.9974975585938 1201.856689453125 733.9994506835938 1201.788940429688 733.997314453125 C 1201.253784179688 733.9862060546875 1200.718627929688 733.83251953125 1200.175659179688 733.5316162109375 C 1197.649291992188 732.131103515625 1195.108032226562 730.7550048828125 1192.587524414062 729.3450927734375 C 1192.427978515625 729.255859375 1192.281860351562 729.157958984375 1192.146728515625 729.0540771484375 C 1190.8984375 728.3621826171875 1189.6494140625 727.6707763671875 1188.402587890625 726.9776611328125 C 1187.426391601562 726.434326171875 1187 725.575927734375 1187.000244140625 724.509033203125 C 1187.000244140625 723.1492919921875 1187.000244140625 721.7894287109375 1187 720.4298095703125 C 1186.999633789062 720.3846435546875 1186.999633789062 720.338623046875 1186.999633789062 720.293212890625 C 1187 719.528564453125 1187 718.7635498046875 1187 717.9984130859375 C 1187 717.233154296875 1187 716.468505859375 1186.999633789062 715.703857421875 C 1186.999633789062 715.658203125 1186.999633789062 715.612548828125 1187 715.5667724609375 C 1187.000244140625 714.2073974609375 1187.000244140625 712.8477783203125 1187.000244140625 711.4881591796875 C 1187 710.421142578125 1187.426391601562 709.562255859375 1188.402587890625 709.0196533203125 C 1189.6494140625 708.325439453125 1190.8984375 707.6348876953125 1192.146728515625 706.942626953125 C 1192.281860351562 706.8387451171875 1192.427978515625 706.7413330078125 1192.587524414062 706.652099609375 C 1195.108032226562 705.2420654296875 1197.649291992188 703.8660888671875 1200.175659179688 702.465576171875 C 1200.718627929688 702.1650390625 1201.253784179688 702.010498046875 1201.788940429688 701.999755859375 C 1201.808471679688 701.9991455078125 1201.82763671875 701.99853515625 1201.846801757812 701.9986572265625 Z" stroke="none" fill="#8247e5"/>
    </g>
    <path id="Path_4390" data-name="Path 4390" d="M15.949,5.565a1.4,1.4,0,0,0-1.32,0L11.549,7.38,9.46,8.535,6.435,10.35a1.4,1.4,0,0,1-1.32,0L2.75,8.92a1.341,1.341,0,0,1-.66-1.155V5.015A1.357,1.357,0,0,1,2.75,3.86L5.115,2.485a1.4,1.4,0,0,1,1.32,0L8.8,3.915A1.341,1.341,0,0,1,9.46,5.07V6.885l2.09-1.21V3.8a1.357,1.357,0,0,0-.66-1.155L6.49.065a1.4,1.4,0,0,0-1.32,0L.66,2.7A1.21,1.21,0,0,0,0,3.8v5.17A1.357,1.357,0,0,0,.66,10.13l4.455,2.585a1.4,1.4,0,0,0,1.32,0l3.025-1.76,2.09-1.21,3.025-1.76a1.4,1.4,0,0,1,1.32,0L18.259,9.36a1.341,1.341,0,0,1,.66,1.155v2.75a1.357,1.357,0,0,1-.66,1.155l-2.31,1.375a1.4,1.4,0,0,1-1.32,0l-2.365-1.375a1.341,1.341,0,0,1-.66-1.155V11.5l-2.09,1.21v1.815a1.357,1.357,0,0,0,.66,1.155l4.455,2.585a1.4,1.4,0,0,0,1.32,0L20.4,15.684a1.341,1.341,0,0,0,.66-1.155V9.3A1.357,1.357,0,0,0,20.4,8.15Z" transform="translate(-637.532 3900.583)" fill="#fff"/>
  </g>
</svg>
