<svg width="24" height="24" viewBox="0 0 24 24" fill="none" xmlns="http://www.w3.org/2000/svg">
<g opacity="0.4">
<path d="M17.5009 9.25012H10.751C9.92255 9.25012 9.25098 9.92169 9.25098 10.7501V17.5001C9.25098 18.3285 9.92255 19.0001 10.751 19.0001H17.5009C18.3294 19.0001 19.0009 18.3285 19.0009 17.5001V10.7501C19.0009 9.92169 18.3294 9.25012 17.5009 9.25012Z" stroke="black" stroke-width="2" stroke-linecap="round" stroke-linejoin="round"/>
<path d="M6.24999 13.75H5.49999C5.10217 13.75 4.72064 13.5919 4.43934 13.3106C4.15803 13.0293 4 12.6478 4 12.25V5.49999C4 5.10217 4.15803 4.72064 4.43934 4.43934C4.72064 4.15803 5.10217 4 5.49999 4H12.25C12.6478 4 13.0293 4.15803 13.3106 4.43934C13.5919 4.72064 13.75 5.10217 13.75 5.49999V6.24999" stroke="black" stroke-width="2" stroke-linecap="round" stroke-linejoin="round"/>
</g>
</svg>
